# xmcd
#
# Track frame offsets: 
#        150
#        17536
#        36683
#        58159
#        71849
#        86863
#        101625
#        118685
#        138214
#        155136
#        169221
#        188886
#
# Disc length: 2703 seconds
#
# Revision: 0
# Processed by: cddbd v1.5.2PL0 Copyright (c) Steve Scherf et al.
# Submitted via: ExactAudioCopy v0.95b4
#
DISCID=b20a8d0c
DTITLE=Mike Scott - Mountain Valley Bluegrass
DYEAR=1900
DGENRE=Bluegrass
TTITLE0=Home Sweet Home
TTITLE1=Bully Of The Town
TTITLE2=Tennessee Waltz
TTITLE3=Dear Old Dixie
TTITLE4=Turkey In The Straw
TTITLE5=Alabama Jubilee
TTITLE6=Red Wing
TTITLE7=When You're Smiling
TTITLE8=Careless Love
TTITLE9=Roll In My Sweet Baby's Arms
TTITLE10=Good-bye Liza Jane
TTITLE11=Lonesome Road Blues
EXTD=
EXTT0=
EXTT1=
EXTT2=
EXTT3=
EXTT4=
EXTT5=
EXTT6=
EXTT7=
EXTT8=
EXTT9=
EXTT10=
EXTT11=
PLAYORDER=
